<svg xmlns="http://www.w3.org/2000/svg" xml:space="preserve" width="1500" height="218" data-id="lg_iu6XwWEkPhbeTZ9FVB" data-version="1" viewBox="0 0 1500 218"><g data-padding="20"><g transform="translate(10 3.893)scale(.96429)"><rect width="559.618" height="218.09" x="87.598" y="-400.045" fill="none" rx="0" ry="0" transform="translate(400 400)"/><g transform="translate(217.17 401.05)"><linearGradient id="a" x1="0" x2="1" y1="0" y2="0" gradientUnits="objectBoundingBox"><stop offset="0%" stop-color="#0f3054"/><stop offset="49.8%" stop-color="#3b8dcb"/><stop offset="100%" stop-color="#0f3054"/></linearGradient><path fill="url(#a)" d="M634.477 32.49q6.18 0 13.51 2.89 6.76 2.71 6.76 10.23v132.98q0 9.26-11.39 9.26t-11.39-9.26v-99.2l-5.59-.58-7.72 25.09-23.16 77.2q-2.13 6.75-10.42 6.56-3.67-.19-6.37-1.93-2.71-1.74-3.67-5.02l-13.9-44.97q-4.24-13.31-8.49-27.11-4.24-13.8-9.26-30.59l-5.6.77v99.78q0 9.26-11.39 9.26-11.38 0-11.38-9.26V45.61q0-7.33 6.75-10.23 7.14-2.89 13.7-2.7 2.9 0 5.99.77 3.09.78 5.79 2.22 2.7 1.45 4.82 3.67 2.13 2.22 3.28 5.12l30.3 103.25q3.29-11.39 6.95-24.7 3.67-13.32 7.53-27.02 3.86-13.71 7.62-27.12 3.77-13.41 7.05-24.99 1.16-2.71 3.28-4.83t4.82-3.57q2.71-1.45 5.7-2.22t5.88-.77" transform="translate(-217.47 -401.17)"/></g><path fill="url(#a)" d="M697.207 41.75v136.84q0 9.26-11.58 9.26-11.39 0-11.39-9.26V41.75q0-9.26 11.39-9.26 11.58 0 11.58 9.26" transform="translate(-.3 -.12)"/><path fill="url(#a)" d="M806.827 186.89h-75.07q-7.15 0-9.65-3.67-2.51-3.66-2.51-8.1V41.75q0-9.26 11.19-9.26 11.58 0 11.58 9.26V167.4h64.46q6.95 0 6.95 9.45.39 10.04-6.95 10.04m68.9-.19h-25.28q-5.98 0-11.39-1.64-5.4-1.64-10.42-4.73v.19q-9.46-5.98-9.46-22v-9.46q0-7.91 2.8-13.8 2.8-5.88 7.82-9.36h-.19q4.82-3.28 10.23-4.92 5.4-1.64 10.42-1.64h42.65v-17.95q0-4.82-2.99-8.78t-10.13-3.96h-22.58q-7.34 0-10.14 3.57t-2.8 8.4v1.54q0 10.04-10.8 10.04-10.81 0-10.81-10.04v-1.73q0-7.92 2.8-13.32 2.8-5.41 7.62-9.07h-.19q5.02-3.28 10.52-5.41 5.5-2.12 10.51-2.12h29.34q4.83 0 10.33 2.12 5.5 2.13 10.32 5.41h-.19q5.02 3.66 7.72 9.55t2.7 13.61v77.39q0 9.26-10.61 9.26-2.13 0-3.96-.19t-3.28-1.06-2.32-2.51-.87-4.34l-.19-42.27h-38.99q-4.24 0-6.56.97-2.31.96-3.66 3.08-1.55 3.29-2.22 5.12-.68 1.83-.68 4.15v7.53q0 5.01 2.99 7.62 2.99 2.6 10.33 2.6h21.61q7.14 0 7.14 9.08 0 3.86-1.73 6.46-1.74 2.61-5.41 2.61" transform="translate(-.31 -.12)"/><path fill="url(#a)" d="m951.777 88.65-.2 89.94q0 4.63-3.28 6.95-3.28 2.31-7.14 2.31-10.61 0-10.61-9.26V41.56q0-9.26 10.61-9.26 10.62 0 10.62 9.26v28.95h40.72q9.84 0 20.46 7.33 10.42 7.34 10.42 23.16v57.52q0 16.02-9.46 22-9.46 6.18-21.61 6.18h-22.78q-6.95 0-7.33-9.07 0-9.08 7.33-9.08h19.3q7.14 0 10.23-2.6 3.09-2.61 3.09-7.62v-55.59q0-5.02-3.09-9.65l.19.19q-2.51-4.63-10.23-4.63Z" transform="translate(-.31 -.13)"/></g><path fill="transparent" stroke="transparent" d="M470 0h560v218H470z"/></g></svg>